<svg width="800" height="800" viewBox="0 0 800 800" fill="none" xmlns="http://www.w3.org/2000/svg">
<g clip-path="url(#clip0_1_3)">
<rect width="800" height="800" rx="50" fill="#661AE6"/>
<path d="M198.125 700V606.909H238.307C245.216 606.909 251.261 608.273 256.443 611C261.625 613.727 265.655 617.561 268.534 622.5C271.413 627.439 272.852 633.212 272.852 639.818C272.852 646.485 271.367 652.258 268.398 657.136C265.458 662.015 261.322 665.773 255.989 668.409C250.686 671.045 244.489 672.364 237.398 672.364H213.398V652.727H232.307C235.277 652.727 237.807 652.212 239.898 651.182C242.019 650.121 243.64 648.621 244.761 646.682C245.913 644.742 246.489 642.455 246.489 639.818C246.489 637.152 245.913 634.879 244.761 633C243.64 631.091 242.019 629.636 239.898 628.636C237.807 627.606 235.277 627.091 232.307 627.091H223.398V700H198.125ZM317.943 700H282.125V606.909H317.58C327.155 606.909 335.428 608.773 342.398 612.5C349.398 616.197 354.792 621.53 358.58 628.5C362.398 635.439 364.307 643.758 364.307 653.455C364.307 663.152 362.413 671.485 358.625 678.455C354.837 685.394 349.473 690.727 342.534 694.455C335.595 698.152 327.398 700 317.943 700ZM307.398 678.545H317.034C321.64 678.545 325.564 677.803 328.807 676.318C332.08 674.833 334.564 672.273 336.261 668.636C337.989 665 338.852 659.939 338.852 653.455C338.852 646.97 337.973 641.909 336.216 638.273C334.489 634.636 331.943 632.076 328.58 630.591C325.246 629.106 321.155 628.364 316.307 628.364H307.398V678.545ZM376 700V606.909H441.455V627.273H401.273V643.273H437.455V663.636H401.273V700H376ZM542.932 630.182C542.386 625.576 540.174 622 536.295 619.455C532.417 616.909 527.659 615.636 522.023 615.636C517.902 615.636 514.295 616.303 511.205 617.636C508.144 618.97 505.75 620.803 504.023 623.136C502.326 625.47 501.477 628.121 501.477 631.091C501.477 633.576 502.068 635.712 503.25 637.5C504.462 639.258 506.008 640.727 507.886 641.909C509.765 643.061 511.735 644.015 513.795 644.773C515.856 645.5 517.75 646.091 519.477 646.545L528.932 649.091C531.356 649.727 534.053 650.606 537.023 651.727C540.023 652.848 542.886 654.379 545.614 656.318C548.371 658.227 550.644 660.682 552.432 663.682C554.22 666.682 555.114 670.364 555.114 674.727C555.114 679.758 553.795 684.303 551.159 688.364C548.553 692.424 544.735 695.652 539.705 698.045C534.705 700.439 528.629 701.636 521.477 701.636C514.811 701.636 509.038 700.561 504.159 698.409C499.311 696.258 495.492 693.258 492.705 689.409C489.947 685.561 488.386 681.091 488.023 676H499.659C499.962 679.515 501.144 682.424 503.205 684.727C505.295 687 507.932 688.697 511.114 689.818C514.326 690.909 517.78 691.455 521.477 691.455C525.78 691.455 529.644 690.758 533.068 689.364C536.492 687.939 539.205 685.97 541.205 683.455C543.205 680.909 544.205 677.939 544.205 674.545C544.205 671.455 543.341 668.939 541.614 667C539.886 665.061 537.614 663.485 534.795 662.273C531.977 661.061 528.932 660 525.659 659.091L514.205 655.818C506.932 653.727 501.174 650.742 496.932 646.864C492.689 642.985 490.568 637.909 490.568 631.636C490.568 626.424 491.977 621.879 494.795 618C497.644 614.091 501.462 611.061 506.25 608.909C511.068 606.727 516.447 605.636 522.386 605.636C528.386 605.636 533.72 606.712 538.386 608.864C543.053 610.985 546.75 613.894 549.477 617.591C552.235 621.288 553.689 625.485 553.841 630.182H542.932ZM602.557 630.182V639.273H566.375V630.182H602.557ZM576.92 613.455H587.648V680C587.648 683.03 588.087 685.303 588.966 686.818C589.875 688.303 591.027 689.303 592.42 689.818C593.845 690.303 595.345 690.545 596.92 690.545C598.102 690.545 599.072 690.485 599.83 690.364C600.587 690.212 601.193 690.091 601.648 690L603.83 699.636C603.102 699.909 602.087 700.182 600.784 700.455C599.481 700.758 597.83 700.909 595.83 700.909C592.799 700.909 589.83 700.258 586.92 698.955C584.042 697.652 581.648 695.667 579.739 693C577.86 690.333 576.92 686.97 576.92 682.909V613.455ZM618.693 700V630.182H629.057V640.727H629.784C631.057 637.273 633.36 634.47 636.693 632.318C640.027 630.167 643.784 629.091 647.966 629.091C648.754 629.091 649.739 629.106 650.92 629.136C652.102 629.167 652.996 629.212 653.602 629.273V640.182C653.239 640.091 652.405 639.955 651.102 639.773C649.83 639.561 648.481 639.455 647.057 639.455C643.663 639.455 640.633 640.167 637.966 641.591C635.33 642.985 633.239 644.924 631.693 647.409C630.178 649.864 629.42 652.667 629.42 655.818V700H618.693ZM666.318 700V630.182H677.045V700H666.318ZM671.773 618.545C669.682 618.545 667.879 617.833 666.364 616.409C664.879 614.985 664.136 613.273 664.136 611.273C664.136 609.273 664.879 607.561 666.364 606.136C667.879 604.712 669.682 604 671.773 604C673.864 604 675.652 604.712 677.136 606.136C678.652 607.561 679.409 609.273 679.409 611.273C679.409 613.273 678.652 614.985 677.136 616.409C675.652 617.833 673.864 618.545 671.773 618.545ZM696.693 726.182V630.182H707.057V641.273H708.33C709.117 640.061 710.208 638.515 711.602 636.636C713.027 634.727 715.057 633.03 717.693 631.545C720.36 630.03 723.966 629.273 728.511 629.273C734.39 629.273 739.572 630.742 744.057 633.682C748.542 636.621 752.042 640.788 754.557 646.182C757.072 651.576 758.33 657.939 758.33 665.273C758.33 672.667 757.072 679.076 754.557 684.5C752.042 689.894 748.557 694.076 744.102 697.045C739.648 699.985 734.511 701.455 728.693 701.455C724.208 701.455 720.617 700.712 717.92 699.227C715.223 697.712 713.148 696 711.693 694.091C710.239 692.152 709.117 690.545 708.33 689.273H707.42V726.182H696.693ZM707.239 665.091C707.239 670.364 708.011 675.015 709.557 679.045C711.102 683.045 713.36 686.182 716.33 688.455C719.299 690.697 722.936 691.818 727.239 691.818C731.723 691.818 735.466 690.636 738.466 688.273C741.496 685.879 743.769 682.667 745.284 678.636C746.83 674.576 747.602 670.061 747.602 665.091C747.602 660.182 746.845 655.758 745.33 651.818C743.845 647.848 741.587 644.712 738.557 642.409C735.557 640.076 731.784 638.909 727.239 638.909C722.875 638.909 719.208 640.015 716.239 642.227C713.269 644.409 711.027 647.47 709.511 651.409C707.996 655.318 707.239 659.879 707.239 665.091Z" fill="white"/>
</g>
<defs>
<clipPath id="clip0_1_3">
<rect width="800" height="800" fill="white"/>
</clipPath>
</defs>
</svg>
